<svg id="Layer_1" data-name="Layer 1" xmlns="http://www.w3.org/2000/svg" viewBox="0 0 512 512"><defs><style>.cls-1{fill:#f4536a;}.cls-2{fill:#ee374b;}.cls-3{fill:#54af47;}.cls-4{fill:#74c666;}.cls-5{fill:#6b287c;}</style></defs><title>sock-filled</title><path class="cls-1" d="M360.17,263.66,315,121.33a20.47,20.47,0,0,1-3,1.31L194.46,159.93a20.48,20.48,0,0,1-3.23.68l31.69,99.86L156.21,388.18a79.13,79.13,0,0,0-8.63,30.12c-2.35,28.72,10.88,57.61,37,72.78a75.84,75.84,0,0,0,82-3.56,75,75,0,0,0,23.68-27.18L354,336.87a96,96,0,0,0,6.18-73.2Z"/><path class="cls-2" d="M360.17,263.66,315,121.33a20.47,20.47,0,0,1-3,1.31l-39.48,12.53,40.78,128.49a96,96,0,0,1-6.18,73.2L243.33,460.35a75.66,75.66,0,0,1-44,37.33,75.82,75.82,0,0,0,67.24-10.15,75,75,0,0,0,23.68-27.18L354,336.87a96,96,0,0,0,6.18-73.2Z"/><path class="cls-3" d="M350.94,234.59l9.23,29.08a96,96,0,0,1-6.18,73.2l-6.47,12.52a60.91,60.91,0,0,1,3.42-114.8Z"/><path class="cls-4" d="M270.22,484.63a86.4,86.4,0,0,0-111.9-73.76A84.59,84.59,0,0,0,148,415c-.14,1.11-.34,2.22-.43,3.34-2.35,28.72,10.88,57.61,37,72.78a75.84,75.84,0,0,0,82-3.56C267.84,486.64,269,485.6,270.22,484.63Z"/><path class="cls-3" d="M266.62,467.18a86.25,86.25,0,0,0-13.45-25.89l-9.83,19a75.66,75.66,0,0,1-44,37.33,75.71,75.71,0,0,0,8.35,2.18l.82.16a75.63,75.63,0,0,0,8.38,1.16H217a75.72,75.72,0,0,0,8.38.17h.56a75.91,75.91,0,0,0,8-.77l1.15-.19a76,76,0,0,0,7.85-1.68l.22-.07a76,76,0,0,0,7.33-2.48l1.2-.46a75.76,75.76,0,0,0,6.9-3.26c.44-.24.87-.49,1.31-.73a75.21,75.21,0,0,0,6.7-4.17c1.27-.89,2.44-1.93,3.66-2.9A85.63,85.63,0,0,0,266.62,467.18Z"/><path class="cls-4" d="M165.68,82.11H322.41A3.88,3.88,0,0,1,326.29,86v52.85a3.87,3.87,0,0,1-3.87,3.87H165.68a3.88,3.88,0,0,1-3.88-3.88V86a3.88,3.88,0,0,1,3.88-3.88Z" transform="translate(-22.57 79.09) rotate(-17.61)"/><path class="cls-4" d="M165.68,82.11H322.41A3.88,3.88,0,0,1,326.29,86v52.85a3.87,3.87,0,0,1-3.87,3.87H165.68a3.88,3.88,0,0,1-3.88-3.88V86a3.88,3.88,0,0,1,3.88-3.88Z" transform="translate(-22.57 79.09) rotate(-17.61)"/><path class="cls-5" d="M370.28,260.45l-42.81-135a31.26,31.26,0,0,0,8-31.85L329.64,75.1c17.19-21.73,23.51-39.43,19.31-54A28.72,28.72,0,0,0,330.82,2l-3-.94a28.9,28.9,0,0,0-25.65,5.09c-11,8.68-16.37,25.46-15.92,49.92L172.91,92a31.27,31.27,0,0,0-20.32,39.22l5.87,18.49A31,31,0,0,0,173.86,168a31.34,31.34,0,0,0,9.55,3.13l28.06,88.32L196.08,289a10.63,10.63,0,0,0,18.86,9.83l17.44-33.44a10.63,10.63,0,0,0,.71-8.13l-28.4-89.4L308.2,135l29.63,93.47a71.52,71.52,0,0,0-4.74,125.69L280.8,455.48a65.29,65.29,0,0,1-4.42,7.31,96.93,96.93,0,0,0-40-51.33,10.63,10.63,0,1,0-11.38,18,75.59,75.59,0,0,1,31.52,40.88,79.8,79.8,0,0,1,2.37,9.64l-.1.07-.53.34h0a65.56,65.56,0,0,1-68.31,1.54C169.37,470,157.08,446.81,158,422.24c1.22-.48,2.38-.88,3.52-1.24a73.93,73.93,0,0,1,33-2.8,10.63,10.63,0,0,0,3-21,94.27,94.27,0,0,0-34.41,1.42c.76-1.85,1.59-3.68,2.51-5.48l6.75-12.86a10.63,10.63,0,1,0-18.83-9.87l-6.79,12.94A90.45,90.45,0,0,0,137,417.45c-2.76,33.82,13.83,66.33,42.26,82.83A87,87,0,0,0,222.88,512a86.37,86.37,0,0,0,76.82-46.77l63.72-123.46a106.51,106.51,0,0,0,6.86-81.32ZM299.86,74.55a10,10,0,0,1,9.51,6.95l5.87,18.5a10,10,0,0,1-6.48,12.52h0l-11.49,3.65-11.9-37.49L296.85,75A9.92,9.92,0,0,1,299.86,74.55Zm-22.87,48-16.86,5.35-11.9-37.49,16.86-5.35Zm-37.13,11.78L223,139.72l-11.9-37.49L228,96.88ZM315.09,23a7.81,7.81,0,0,1,6.35-1.66l3,.94a7.66,7.66,0,0,1,4,4.7c.74,2.55,1.66,11.67-12.45,30.84a31.51,31.51,0,0,0-8.62-3.61C307.23,32.24,312.56,25.15,315.09,23ZM172.86,124.82a10,10,0,0,1,6.49-12.51l11.49-3.65,11.9,37.49-11.49,3.65a10,10,0,0,1-12.51-6.48ZM353.75,300a84.51,84.51,0,0,1-9.22,32l-1.68,3.25a50.33,50.33,0,0,1,1.5-86.22L350,266.91A84.51,84.51,0,0,1,353.75,300Z"/><path class="cls-5" d="M175.22,351.76a10.63,10.63,0,0,0,14.35-4.49l8.19-15.63a10.63,10.63,0,1,0-18.83-9.86l-8.19,15.63A10.63,10.63,0,0,0,175.22,351.76Z"/></svg>